<?xml version="1.0" encoding="UTF-8"?>
<!DOCTYPE svg PUBLIC "-//W3C//DTD SVG 1.1//EN" "http://www.w3.org/Graphics/SVG/1.1/DTD/svg11.dtd">
<!-- Creator: CorelDRAW X7 -->
<svg xmlns="http://www.w3.org/2000/svg" xml:space="preserve" width="215mm" height="50mm" version="1.1" style="shape-rendering:geometricPrecision; text-rendering:geometricPrecision; image-rendering:optimizeQuality; fill-rule:evenodd; clip-rule:evenodd"
viewBox="0 0 21500 5000"
 xmlns:xlink="http://www.w3.org/1999/xlink">
 <defs>
  <style type="text/css">
   <![CDATA[
    .fil0 {fill:#191919;fill-rule:nonzero}
    .fil1 {fill:#3177FF;fill-rule:nonzero}
   ]]>
  </style>
 </defs>
 <g id="Layer_x0020_1">
  <metadata id="CorelCorpID_0Corel-Layer"/>
  <g id="_1225362487632">
   <path class="fil0" d="M12068 1477l-352 0 0 1127 -485 0 0 -1127 -351 0 0 -388 1188 0 0 388zm1414 1127l-534 0 -198 -451 -105 0 0 451 -485 0 0 -1515 764 0c348,0 521,177 521,531 0,242 -75,402 -225,480l262 504zm-837 -1127l0 303 112 0c58,0 100,-6 127,-18 27,-13 40,-40 40,-84l0 -100c0,-43 -13,-71 -40,-83 -27,-12 -69,-18 -127,-18l-112 0zm1327 1127l-512 0 393 -1515 749 0 393 1515 -512 0 -55 -240 -400 0 -56 240zm242 -1050l-99 425 223 0 -97 -425 -27 0zm832 1050l0 -1515 485 0 0 1515 -485 0zm1577 0l-371 -538c-13,-18 -21,-57 -25,-117l-9 0 0 655 -485 0 0 -1515 456 0 370 538c13,18 21,57 25,116l9 0 0 -654 485 0 0 1515 -455 0zm657 0l0 -1515 485 0 0 1515 -485 0zm1576 0l-371 -538c-13,-18 -21,-57 -24,-117l-10 0 0 655 -485 0 0 -1515 456 0 371 538c13,18 21,57 24,116l10 0 0 -654 485 0 0 1515 -456 0zm1433 -446l0 -66 -123 0 0 -370 584 0 0 809c-192,73 -391,109 -596,109 -277,0 -467,-67 -570,-201 -54,-69 -91,-151 -112,-245 -21,-93 -31,-209 -31,-348 0,-138 11,-253 32,-346 22,-93 61,-174 118,-244 107,-136 313,-204 618,-204 63,0 145,7 246,20 101,13 175,27 222,43l-72 371c-131,-22 -250,-34 -356,-34 -106,0 -180,8 -223,25 -43,16 -64,48 -64,97l0 686 160 0c58,0 101,-6 127,-18 27,-13 40,-40 40,-84z"/>
   <path class="fil0" d="M11723 4077l-315 0 0 366 -485 0 0 -1516 764 0c348,0 521,187 521,560 0,206 -45,358 -135,456 -34,37 -81,69 -141,95 -60,26 -129,39 -209,39zm-315 -762l0 374 112 0c58,0 100,-6 127,-19 27,-12 40,-40 40,-83l0 -170c0,-44 -13,-72 -40,-84 -27,-12 -69,-18 -127,-18l-112 0zm1875 1128l-970 0 0 -1516 485 0 0 1128 485 0 0 388zm550 0l-511 0 393 -1516 749 0 393 1516 -512 0 -56 -240 -400 0 -56 240zm243 -1050l-100 424 224 0 -97 -424 -27 0zm1722 1050l-371 -539c-13,-17 -21,-56 -25,-116l-9 0 0 655 -485 0 0 -1516 456 0 371 539c13,17 21,56 24,116l10 0 0 -655 484 0 0 1516 -455 0z"/>
   <path class="fil1" d="M16517 4408c-31,-32 -46,-88 -46,-169 0,-81 15,-139 46,-171 30,-33 89,-50 178,-50 89,0 148,17 178,50 30,32 46,90 46,171 0,81 -16,137 -46,169 -30,31 -89,47 -178,47 -89,0 -148,-16 -178,-47zm1004 35l-435 0 334 -1289 637 0 334 1289 -435 0 -48 -204 -340 0 -47 204zm206 -893l-84 361 189 0 -82 -361 -23 0zm1409 581l-268 0 0 312 -413 0 0 -1289 650 0c295,0 443,159 443,477 0,174 -39,303 -116,387 -29,32 -68,58 -119,80 -51,22 -110,33 -177,33zm-268 -647l0 318 94 0c50,0 86,-6 109,-16 22,-10 34,-34 34,-71l0 -144c0,-37 -12,-61 -34,-71 -23,-11 -59,-16 -109,-16l-94 0zm1470 647l-268 0 0 312 -412 0 0 -1289 649 0c295,0 443,159 443,477 0,174 -38,303 -115,387 -29,32 -69,58 -120,80 -51,22 -110,33 -177,33zm-268 -647l0 318 95 0c49,0 85,-6 108,-16 23,-10 34,-34 34,-71l0 -144c0,-37 -11,-61 -34,-71 -23,-11 -59,-16 -108,-16l-95 0z"/>
   <path class="fil1" d="M4681 1090l1473 0 -1163 2702c-173,403 -549,651 -988,651l-1555 0 613 -1427c133,-301 622,-218 622,140 0,180 -146,326 -327,326l-83 0 -180 421c305,-3 547,23 790,-220 468,-468 134,-1271 -527,-1271 -295,0 -567,179 -681,446l-448 1040 -1477 0c388,-901 775,-1802 1162,-2702 174,-404 549,-651 989,-651l2014 0 -234 545zm-2500 1005l1146 0c586,0 958,431 1043,824l579 -1342 -455 0 -200 464c-265,-230 -607,-361 -967,-361l-967 0 -179 415zm1575 -1342c-208,0 -377,169 -377,377 0,208 169,376 377,376 208,0 377,-168 377,-376 0,-208 -169,-377 -377,-377z"/>
   <path class="fil1" d="M9436 4443c0,-690 0,-1380 0,-2069 332,0 664,0 996,0 0,689 0,1379 0,2069 -332,0 -664,0 -996,0z"/>
   <path class="fil1" d="M9436 1968c0,-293 0,-586 0,-879 332,0 664,0 996,0 0,293 0,586 0,879 -332,0 -664,0 -996,0z"/>
   <path class="fil1" d="M6560 1089l-1359 3175 -76 179 1003 0 112 0 1072 -2517 535 0c28,0 50,10 70,30 19,20 29,44 29,70l0 1001 -720 0 -372 851 1092 0c0,140 0,425 0,565 333,0 665,0 998,0 0,-825 0,-1650 0,-2475 0,-163 -39,-310 -119,-442 -80,-133 -185,-239 -318,-318 -132,-79 -279,-119 -439,-119l-43 0 -79 0c-585,0 -801,0 -1386,0z"/>
  </g>
 </g>
</svg>
